<svg width="32" height="32" viewBox="0 0 32 32" fill="none" xmlns="http://www.w3.org/2000/svg">
<g clip-path="url(#clip0)">
<path d="M27.6791 8.13065C26.8436 7.54665 25.584 7.65865 24.8338 8.2782L25.6942 7.02754C26.3867 6.03998 26.1387 4.97154 25.1502 4.2782C24.1618 3.58754 21.3609 5.44443 21.3609 5.44443C22.0596 4.44709 21.9289 3.18309 20.9316 2.48354C20.4521 2.1485 19.8592 2.01751 19.2832 2.11935C18.7071 2.22118 18.1951 2.54751 17.8596 3.02665L8.59734 16.1111L9.77778 27.5555L19.6293 23.9626L28.2222 11.2222C28.3898 10.9836 28.5087 10.7144 28.5721 10.4298C28.6355 10.1452 28.6421 9.85096 28.5917 9.56382C28.5412 9.27668 28.4347 9.0023 28.2781 8.75638C28.1215 8.51046 27.918 8.29783 27.6791 8.13065Z" fill="#EF9645"/>
<path d="M29.6044 15.4098C29.6044 15.4098 30.6106 13.9431 29.143 12.9378C27.6772 11.9325 26.6719 13.3982 26.6719 13.3982L22.0044 20.2054C21.8435 19.9369 21.6675 19.672 21.471 19.4107L27.9492 9.96447C27.9492 9.96447 28.9546 8.49869 27.4879 7.49335C26.0221 6.48802 25.0168 7.9538 25.0168 7.9538L18.9235 16.84C18.6968 16.6551 18.4648 16.4694 18.2257 16.2871L25.2897 5.98402C25.2897 5.98402 26.295 4.51824 24.8284 3.51291C23.3626 2.50758 22.3572 3.97335 22.3572 3.97335L15.2932 14.2747C15.0337 14.1156 14.7768 13.9778 14.519 13.832L21.1217 4.20358C21.1217 4.20358 22.127 2.7378 20.6612 1.73247C19.1955 0.727132 18.1901 2.19291 18.1901 2.19291L11.2088 12.3742L10.1475 13.9227C14.5457 16.9396 14.9644 22.6151 12.4515 26.28C11.9492 27.0134 11.2159 26.5111 11.2159 26.5111C14.2319 22.112 13.311 17.1689 8.91191 14.1529L10.2088 7.66224C10.2088 7.66224 10.6932 5.95202 8.98391 5.46669C7.27369 4.98224 6.78836 6.69247 6.78836 6.69247L5.29058 11.1405C4.6968 12.904 4.0648 14.6614 3.22836 16.3236C0.866579 21.0169 2.27725 26.8498 6.73058 29.9049C11.5884 33.2356 18.2292 31.9974 21.5608 27.1405L29.6044 15.4098Z" fill="#FFDC5D"/>
<path d="M21.3334 28.4818C24.8889 28.4818 28.4818 24.8889 28.4818 21.3333C28.4818 20.8418 28.8418 20.4444 29.3334 20.4444C29.8249 20.4444 30.2596 20.8418 30.2596 21.3333C30.2596 26.6666 26.6667 30.2595 21.3334 30.2595C20.8418 30.2595 20.4445 29.8249 20.4445 29.3333C20.4445 28.8418 20.8418 28.4818 21.3334 28.4818Z" fill="#5DADEC"/>
<path d="M25.7778 30.2222C28.4444 30.2222 30.2222 28.4444 30.2222 25.7778C30.2222 25.542 30.3159 25.3159 30.4826 25.1492C30.6493 24.9825 30.8754 24.8889 31.1111 24.8889C31.3469 24.8889 31.573 24.9825 31.7397 25.1492C31.9063 25.3159 32 25.542 32 25.7778C32 29.3333 29.3333 32 25.7778 32C25.542 32 25.3159 31.9063 25.1492 31.7396C24.9825 31.5729 24.8889 31.3469 24.8889 31.1111C24.8889 30.8754 24.9825 30.6493 25.1492 30.4826C25.3159 30.3159 25.542 30.2222 25.7778 30.2222ZM10.6667 1.77777C10.9024 1.77777 11.1285 1.87142 11.2952 2.03812C11.4619 2.20482 11.5556 2.43091 11.5556 2.66666C11.5556 2.90241 11.4619 3.1285 11.2952 3.2952C11.1285 3.4619 10.9024 3.55555 10.6667 3.55555C7.11111 3.55555 3.55556 6.74577 3.55556 10.6667C3.55556 10.9024 3.46191 11.1285 3.29521 11.2952C3.12851 11.4619 2.90241 11.5555 2.66667 11.5555C2.43092 11.5555 2.20483 11.4619 2.03813 11.2952C1.87143 11.1285 1.77778 10.9024 1.77778 10.6667C1.77778 5.76533 5.33333 1.77777 10.6667 1.77777Z" fill="#5DADEC"/>
<path d="M6.2222 0.037323C6.71286 0.037323 7.11108 0.398212 7.11108 0.888879C7.11108 1.37955 6.71286 1.8151 6.2222 1.8151C3.55553 1.8151 1.81508 3.79288 1.81508 6.22221C1.81508 6.71288 1.38042 7.1111 0.888862 7.1111C0.397306 7.1111 0.0373063 6.71288 0.0373063 6.22221C0.0373063 2.81155 2.66664 0.037323 6.2222 0.037323Z" fill="#5DADEC"/>
</g>
<defs>
<clipPath id="clip0">
<rect width="32" height="32" fill="white" transform="matrix(-1 0 0 1 32 0)"/>
</clipPath>
</defs>
</svg>
