<svg width="261" height="70" viewBox="0 0 261 70" fill="none" xmlns="http://www.w3.org/2000/svg">
<path d="M17.856 16.36C18.36 16.36 18.768 16.528 19.08 16.864C19.416 17.176 19.584 17.584 19.584 18.088V41.272C19.584 41.752 19.416 42.16 19.08 42.496C18.768 42.832 18.36 43 17.856 43C17.352 43 16.944 42.844 16.632 42.532C16.32 42.196 16.164 41.776 16.164 41.272V40.264C15.564 41.128 14.712 41.86 13.608 42.46C12.528 43.06 11.364 43.36 10.116 43.36C8.484 43.36 7.008 42.94 5.688 42.1C4.368 41.26 3.324 40.096 2.556 38.608C1.788 37.096 1.404 35.404 1.404 33.532C1.404 31.66 1.776 29.98 2.52 28.492C3.288 26.98 4.332 25.804 5.652 24.964C6.972 24.124 8.424 23.704 10.008 23.704C11.28 23.704 12.456 23.968 13.536 24.496C14.616 25.024 15.492 25.708 16.164 26.548V18.088C16.164 17.584 16.32 17.176 16.632 16.864C16.944 16.528 17.352 16.36 17.856 16.36ZM10.512 40.192C11.64 40.192 12.636 39.904 13.5 39.328C14.388 38.752 15.072 37.96 15.552 36.952C16.056 35.944 16.308 34.804 16.308 33.532C16.308 32.284 16.056 31.156 15.552 30.148C15.072 29.116 14.388 28.312 13.5 27.736C12.636 27.16 11.64 26.872 10.512 26.872C9.384 26.872 8.376 27.16 7.488 27.736C6.624 28.312 5.94 29.116 5.436 30.148C4.956 31.156 4.716 32.284 4.716 33.532C4.716 34.804 4.956 35.944 5.436 36.952C5.94 37.96 6.624 38.752 7.488 39.328C8.376 39.904 9.384 40.192 10.512 40.192ZM46.3053 23.812C50.5053 23.812 52.6053 26.428 52.6053 31.66V41.272C52.6053 41.776 52.4493 42.196 52.1373 42.532C51.8253 42.844 51.4173 43 50.9133 43C50.4093 43 49.9893 42.832 49.6533 42.496C49.3413 42.16 49.1853 41.752 49.1853 41.272V31.696C49.1853 28.552 47.8653 26.98 45.2253 26.98C44.2893 26.98 43.4373 27.196 42.6693 27.628C41.9253 28.036 41.3373 28.6 40.9053 29.32C40.4973 30.04 40.2933 30.832 40.2933 31.696V41.272C40.2933 41.752 40.1253 42.16 39.7893 42.496C39.4773 42.832 39.0693 43 38.5653 43C38.0613 43 37.6533 42.844 37.3413 42.532C37.0293 42.196 36.8733 41.776 36.8733 41.272V31.66C36.8733 30.244 36.5733 29.116 35.9733 28.276C35.3733 27.412 34.3773 26.98 32.9853 26.98C31.5693 26.98 30.3933 27.436 29.4573 28.348C28.5453 29.236 28.0893 30.34 28.0893 31.66V41.272C28.0893 41.752 27.9213 42.16 27.5853 42.496C27.2733 42.832 26.8653 43 26.3613 43C25.8573 43 25.4493 42.844 25.1373 42.532C24.8253 42.196 24.6693 41.776 24.6693 41.272V25.864C24.6693 25.384 24.8253 24.976 25.1373 24.64C25.4733 24.304 25.8813 24.136 26.3613 24.136C26.8653 24.136 27.2733 24.304 27.5853 24.64C27.9213 24.976 28.0893 25.384 28.0893 25.864V27.124C28.7133 26.188 29.5413 25.408 30.5733 24.784C31.6293 24.136 32.7693 23.812 33.9933 23.812C36.9693 23.812 38.9013 25.132 39.7893 27.772C40.3173 26.764 41.1933 25.852 42.4173 25.036C43.6413 24.22 44.9373 23.812 46.3053 23.812ZM60.9562 41.272C60.9562 41.752 60.7882 42.16 60.4522 42.496C60.1402 42.832 59.7322 43 59.2282 43C58.7482 43 58.3402 42.832 58.0042 42.496C57.6922 42.16 57.5362 41.752 57.5362 41.272V25.684C57.5362 25.204 57.6922 24.796 58.0042 24.46C58.3402 24.124 58.7482 23.956 59.2282 23.956C59.7322 23.956 60.1402 24.124 60.4522 24.46C60.7882 24.796 60.9562 25.204 60.9562 25.684V41.272ZM59.2282 21.58C58.5322 21.58 58.0282 21.46 57.7162 21.22C57.4282 20.956 57.2842 20.548 57.2842 19.996V19.42C57.2842 18.844 57.4402 18.436 57.7522 18.196C58.0882 17.956 58.5922 17.836 59.2642 17.836C59.9362 17.836 60.4162 17.968 60.7042 18.232C61.0162 18.472 61.1722 18.868 61.1722 19.42V19.996C61.1722 20.572 61.0162 20.98 60.7042 21.22C60.3922 21.46 59.9002 21.58 59.2282 21.58ZM70.9844 27.484V38.212C70.9844 39.412 71.5244 40.012 72.6044 40.012C72.7724 40.012 73.0004 39.976 73.2884 39.904C73.5764 39.808 73.8044 39.76 73.9724 39.76C74.2844 39.76 74.5484 39.892 74.7644 40.156C74.9804 40.42 75.0884 40.756 75.0884 41.164C75.0884 41.668 74.8004 42.1 74.2244 42.46C73.6484 42.82 73.0004 43 72.2804 43C71.4884 43 70.7564 42.916 70.0844 42.748C69.4364 42.58 68.8484 42.16 68.3204 41.488C67.8164 40.792 67.5644 39.748 67.5644 38.356V27.484H65.4764C65.0204 27.484 64.6364 27.34 64.3244 27.052C64.0364 26.74 63.8924 26.356 63.8924 25.9C63.8924 25.444 64.0364 25.072 64.3244 24.784C64.6364 24.496 65.0204 24.352 65.4764 24.352H67.5644V21.328C67.5644 20.848 67.7204 20.44 68.0324 20.104C68.3684 19.768 68.7884 19.6 69.2924 19.6C69.7724 19.6 70.1684 19.768 70.4804 20.104C70.8164 20.44 70.9844 20.848 70.9844 21.328V24.352H73.9724C74.4284 24.352 74.8004 24.508 75.0884 24.82C75.4004 25.108 75.5564 25.48 75.5564 25.936C75.5564 26.392 75.4004 26.764 75.0884 27.052C74.8004 27.34 74.4284 27.484 73.9724 27.484H70.9844ZM88.9442 23.704C89.5682 23.704 90.1082 23.872 90.5642 24.208C91.0202 24.52 91.2482 24.916 91.2482 25.396C91.2482 25.972 91.0922 26.416 90.7802 26.728C90.4922 27.016 90.1322 27.16 89.7002 27.16C89.4842 27.16 89.1602 27.088 88.7282 26.944C88.2242 26.776 87.8282 26.692 87.5402 26.692C86.7962 26.692 86.0642 26.956 85.3442 27.484C84.6482 27.988 84.0722 28.696 83.6162 29.608C83.1842 30.496 82.9682 31.492 82.9682 32.596V41.272C82.9682 41.752 82.8002 42.16 82.4642 42.496C82.1522 42.832 81.7442 43 81.2402 43C80.7362 43 80.3282 42.844 80.0162 42.532C79.7042 42.196 79.5482 41.776 79.5482 41.272V25.864C79.5482 25.384 79.7042 24.976 80.0162 24.64C80.3522 24.304 80.7602 24.136 81.2402 24.136C81.7442 24.136 82.1522 24.304 82.4642 24.64C82.8002 24.976 82.9682 25.384 82.9682 25.864V27.7C83.4962 26.524 84.2882 25.576 85.3442 24.856C86.4002 24.112 87.6002 23.728 88.9442 23.704ZM108.459 23.956C108.963 23.956 109.371 24.124 109.683 24.46C110.019 24.796 110.187 25.204 110.187 25.684V41.236C110.187 44.236 109.359 46.48 107.703 47.968C106.047 49.456 103.863 50.2 101.151 50.2C100.263 50.2 99.3873 50.116 98.5233 49.948C97.6593 49.78 96.9513 49.552 96.3993 49.264C95.5113 48.856 95.0673 48.304 95.0673 47.608C95.0673 47.488 95.0913 47.332 95.1393 47.14C95.2833 46.732 95.4873 46.42 95.7513 46.204C96.0153 45.988 96.3153 45.88 96.6513 45.88C96.8433 45.88 97.0233 45.916 97.1913 45.988C97.9353 46.324 98.5953 46.588 99.1713 46.78C99.7473 46.972 100.419 47.068 101.187 47.068C104.907 47.068 106.767 45.16 106.767 41.344V40.624C106.119 41.488 105.279 42.16 104.247 42.64C103.239 43.12 102.075 43.36 100.755 43.36C98.7633 43.36 97.2033 42.724 96.0753 41.452C94.9713 40.18 94.4193 38.512 94.4193 36.448V25.684C94.4193 25.18 94.5753 24.772 94.8873 24.46C95.1993 24.124 95.6073 23.956 96.1113 23.956C96.6153 23.956 97.0233 24.124 97.3353 24.46C97.6713 24.796 97.8393 25.204 97.8393 25.684V35.548C97.8393 37.132 98.1873 38.308 98.8833 39.076C99.5793 39.82 100.635 40.192 102.051 40.192C103.419 40.192 104.547 39.76 105.435 38.896C106.323 38.032 106.767 36.916 106.767 35.548V25.684C106.767 25.18 106.923 24.772 107.235 24.46C107.547 24.124 107.955 23.956 108.459 23.956ZM134.647 23.704C135.271 23.704 135.811 23.872 136.267 24.208C136.723 24.52 136.951 24.916 136.951 25.396C136.951 25.972 136.795 26.416 136.483 26.728C136.195 27.016 135.835 27.16 135.403 27.16C135.187 27.16 134.863 27.088 134.431 26.944C133.927 26.776 133.531 26.692 133.243 26.692C132.499 26.692 131.767 26.956 131.047 27.484C130.351 27.988 129.775 28.696 129.319 29.608C128.887 30.496 128.671 31.492 128.671 32.596V41.272C128.671 41.752 128.503 42.16 128.167 42.496C127.855 42.832 127.447 43 126.943 43C126.439 43 126.031 42.844 125.719 42.532C125.407 42.196 125.251 41.776 125.251 41.272V25.864C125.251 25.384 125.407 24.976 125.719 24.64C126.055 24.304 126.463 24.136 126.943 24.136C127.447 24.136 127.855 24.304 128.167 24.64C128.503 24.976 128.671 25.384 128.671 25.864V27.7C129.199 26.524 129.991 25.576 131.047 24.856C132.103 24.112 133.303 23.728 134.647 23.704ZM154.162 24.136C154.666 24.136 155.074 24.304 155.386 24.64C155.722 24.976 155.89 25.384 155.89 25.864V35.44C155.89 37.936 155.194 39.88 153.802 41.272C152.434 42.64 150.49 43.324 147.97 43.324C145.474 43.324 143.542 42.64 142.174 41.272C140.806 39.88 140.122 37.936 140.122 35.44V25.864C140.122 25.384 140.278 24.976 140.59 24.64C140.926 24.304 141.334 24.136 141.814 24.136C142.318 24.136 142.726 24.304 143.038 24.64C143.374 24.976 143.542 25.384 143.542 25.864V35.44C143.542 38.584 145.018 40.156 147.97 40.156C149.434 40.156 150.55 39.76 151.318 38.968C152.086 38.176 152.47 37 152.47 35.44V25.864C152.47 25.384 152.626 24.976 152.938 24.64C153.274 24.304 153.682 24.136 154.162 24.136ZM159.925 40.048C159.709 39.712 159.601 39.388 159.601 39.076C159.601 38.596 159.853 38.188 160.357 37.852C160.597 37.684 160.873 37.6 161.185 37.6C161.617 37.6 162.013 37.78 162.373 38.14C163.093 38.956 163.861 39.568 164.677 39.976C165.517 40.384 166.513 40.588 167.665 40.588C168.577 40.564 169.381 40.36 170.077 39.976C170.773 39.568 171.121 38.92 171.121 38.032C171.121 37.216 170.761 36.592 170.041 36.16C169.345 35.728 168.313 35.332 166.945 34.972C165.601 34.612 164.485 34.24 163.597 33.856C162.709 33.448 161.953 32.872 161.329 32.128C160.729 31.36 160.429 30.364 160.429 29.14C160.429 28.06 160.729 27.112 161.329 26.296C161.953 25.48 162.769 24.844 163.777 24.388C164.809 23.932 165.925 23.704 167.125 23.704C168.277 23.704 169.417 23.92 170.545 24.352C171.697 24.784 172.633 25.444 173.353 26.332C173.641 26.668 173.785 27.016 173.785 27.376C173.785 27.76 173.593 28.132 173.209 28.492C172.969 28.708 172.669 28.816 172.309 28.816C171.877 28.816 171.529 28.672 171.265 28.384C170.761 27.808 170.137 27.364 169.393 27.052C168.673 26.74 167.869 26.584 166.981 26.584C166.069 26.584 165.289 26.776 164.641 27.16C164.017 27.52 163.705 28.144 163.705 29.032C163.729 29.872 164.089 30.496 164.785 30.904C165.505 31.312 166.597 31.708 168.061 32.092C169.333 32.428 170.389 32.788 171.229 33.172C172.069 33.556 172.777 34.132 173.353 34.9C173.929 35.644 174.217 36.628 174.217 37.852C174.217 38.98 173.893 39.964 173.245 40.804C172.597 41.62 171.745 42.256 170.689 42.712C169.657 43.144 168.553 43.36 167.377 43.36C165.865 43.36 164.461 43.096 163.165 42.568C161.893 42.04 160.813 41.2 159.925 40.048ZM193.743 23.884C194.247 23.884 194.655 24.052 194.967 24.388C195.303 24.7 195.471 25.12 195.471 25.648V41.272C195.471 41.752 195.303 42.16 194.967 42.496C194.655 42.832 194.247 43 193.743 43C193.239 43 192.831 42.844 192.519 42.532C192.207 42.196 192.051 41.776 192.051 41.272V40.336C191.427 41.176 190.575 41.896 189.495 42.496C188.415 43.072 187.251 43.36 186.003 43.36C184.371 43.36 182.883 42.94 181.539 42.1C180.219 41.26 179.175 40.096 178.407 38.608C177.663 37.096 177.291 35.404 177.291 33.532C177.291 31.66 177.663 29.98 178.407 28.492C179.175 26.98 180.219 25.804 181.539 24.964C182.859 24.124 184.311 23.704 185.895 23.704C187.167 23.704 188.343 23.968 189.423 24.496C190.527 25.024 191.403 25.696 192.051 26.512V25.648C192.051 25.144 192.207 24.724 192.519 24.388C192.831 24.052 193.239 23.884 193.743 23.884ZM186.399 40.192C187.527 40.192 188.523 39.904 189.387 39.328C190.275 38.752 190.959 37.96 191.439 36.952C191.943 35.944 192.195 34.804 192.195 33.532C192.195 32.284 191.943 31.156 191.439 30.148C190.959 29.14 190.275 28.348 189.387 27.772C188.523 27.172 187.527 26.872 186.399 26.872C185.271 26.872 184.263 27.16 183.375 27.736C182.511 28.312 181.827 29.104 181.323 30.112C180.843 31.12 180.603 32.26 180.603 33.532C180.603 34.804 180.843 35.944 181.323 36.952C181.827 37.96 182.511 38.752 183.375 39.328C184.263 39.904 185.271 40.192 186.399 40.192ZM210.168 23.704C214.488 23.704 216.648 26.296 216.648 31.48V41.272C216.648 41.752 216.48 42.16 216.144 42.496C215.832 42.832 215.424 43 214.92 43C214.44 43 214.032 42.832 213.696 42.496C213.384 42.16 213.228 41.752 213.228 41.272V31.516C213.228 30.1 212.904 28.972 212.256 28.132C211.608 27.292 210.552 26.872 209.088 26.872C208.128 26.872 207.252 27.088 206.46 27.52C205.692 27.928 205.08 28.492 204.624 29.212C204.192 29.908 203.976 30.676 203.976 31.516V41.272C203.976 41.752 203.808 42.16 203.472 42.496C203.16 42.832 202.752 43 202.248 43C201.744 43 201.336 42.844 201.024 42.532C200.712 42.196 200.556 41.776 200.556 41.272V25.864C200.556 25.384 200.712 24.976 201.024 24.64C201.36 24.304 201.768 24.136 202.248 24.136C202.752 24.136 203.16 24.304 203.472 24.64C203.808 24.976 203.976 25.384 203.976 25.864V27.124C204.6 26.164 205.464 25.36 206.568 24.712C207.696 24.04 208.896 23.704 210.168 23.704ZM239.611 33.568C239.611 35.44 239.191 37.12 238.351 38.608C237.511 40.096 236.359 41.26 234.895 42.1C233.455 42.94 231.859 43.36 230.107 43.36C228.355 43.36 226.747 42.94 225.283 42.1C223.843 41.26 222.703 40.096 221.863 38.608C221.023 37.12 220.603 35.44 220.603 33.568C220.603 31.696 221.023 30.004 221.863 28.492C222.703 26.98 223.843 25.804 225.283 24.964C226.747 24.124 228.355 23.704 230.107 23.704C231.859 23.704 233.455 24.124 234.895 24.964C236.359 25.804 237.511 26.98 238.351 28.492C239.191 30.004 239.611 31.696 239.611 33.568ZM236.191 33.568C236.191 32.272 235.915 31.12 235.363 30.112C234.835 29.08 234.103 28.288 233.167 27.736C232.255 27.16 231.235 26.872 230.107 26.872C228.979 26.872 227.947 27.16 227.011 27.736C226.099 28.288 225.367 29.08 224.815 30.112C224.287 31.12 224.023 32.272 224.023 33.568C224.023 34.84 224.287 35.98 224.815 36.988C225.367 37.996 226.099 38.788 227.011 39.364C227.947 39.916 228.979 40.192 230.107 40.192C231.235 40.192 232.255 39.916 233.167 39.364C234.103 38.788 234.835 37.996 235.363 36.988C235.915 35.98 236.191 34.84 236.191 33.568ZM257.811 23.956C258.267 23.956 258.651 24.112 258.963 24.424C259.275 24.712 259.431 25.06 259.431 25.468C259.431 25.684 259.347 25.984 259.179 26.368L252.339 41.92C252.195 42.232 251.991 42.484 251.727 42.676C251.463 42.868 251.175 42.976 250.863 43C250.479 43.048 250.119 42.976 249.783 42.784C249.471 42.592 249.231 42.304 249.063 41.92L242.223 26.368C242.103 26.008 242.043 25.708 242.043 25.468C242.043 25.084 242.199 24.736 242.511 24.424C242.823 24.112 243.231 23.956 243.735 23.956C244.095 23.956 244.419 24.052 244.707 24.244C244.995 24.412 245.223 24.676 245.391 25.036L250.827 37.672L256.263 25.036C256.599 24.316 257.115 23.956 257.811 23.956Z" fill="white"/>
<rect y="60" width="79" height="2" rx="1" fill="white"/>
<rect x="205" width="56" height="2" rx="1" fill="white"/>
<rect x="40" y="68" width="47" height="2" rx="1" fill="white"/>
<rect x="167" y="5" width="78" height="2" rx="1" fill="white"/>
</svg>
